<svg viewBox="0 0 978 524" role="img" aria-labelledby="archify-diagram-title archify-diagram-description" data-preset="classic" data-quality-profile="showcase">
        <title id="archify-diagram-title">配置怎么落到 Doris：一个拿表名，一个拿列名</title>
        <desc id="archify-diagram-description">A architecture diagram generated by Archify.</desc>
        <!-- Definitions -->
        <defs>
          <marker id="arrowhead" markerWidth="10" markerHeight="7" refX="9" refY="3.5" orient="auto">
            <polygon points="0 0, 10 3.5, 0 7" class="m-default" />
          </marker>
          <marker id="arrowhead-emphasis" markerWidth="10" markerHeight="7" refX="9" refY="3.5" orient="auto">
            <polygon points="0 0, 10 3.5, 0 7" class="m-emphasis" />
          </marker>
          <marker id="arrowhead-security" markerWidth="10" markerHeight="7" refX="9" refY="3.5" orient="auto">
            <polygon points="0 0, 10 3.5, 0 7" class="m-security" />
          </marker>
          <marker id="arrowhead-dashed" markerWidth="10" markerHeight="7" refX="9" refY="3.5" orient="auto">
            <polygon points="0 0, 10 3.5, 0 7" class="m-dashed" />
          </marker>
          <pattern id="grid" width="40" height="40" patternUnits="userSpaceOnUse">
            <path d="M 40 0 L 0 0 0 40" class="c-grid" stroke-width="0.5"/>
          </pattern>
        </defs>

        <!-- Background Grid -->
        <rect width="100%" height="100%" fill="url(#grid)" />

        <!-- Boundaries (behind everything) -->
        <rect data-graph-role="structural-frame" data-composition-frame-kind="region" data-composition-frame-id="0" x="20" y="70" width="918" height="110" rx="12" class="c-region" stroke-width="1"/>
        <text x="28" y="88" class="t-cloud" font-size="9" font-weight="600">MySQL · 配置</text>

        <rect data-graph-role="structural-frame" data-composition-frame-kind="security-group" data-composition-frame-id="1" x="20" y="346" width="918" height="110" rx="8" class="c-security-group" stroke-width="1"/>
        <text x="28" y="364" class="t-security" font-size="9" font-weight="600">Doris · 数据</text>

        <!-- Connection paths (before components for correct z-order) -->
        <path data-edge-from="ds" data-edge-to="holding" data-edge-label="table_name = rel_holding" data-edge-key="0" data-edge-id="e1" data-composition-points="110,160;110,376" d="M 110 160 L 110 376" class="a-default" stroke-width="1.5" marker-end="url(#arrowhead)"/>
        <path data-edge-from="ds" data-edge-to="product" data-edge-label="table_name = rel_product" data-edge-key="1" data-edge-id="e2" data-composition-points="170,130;233,130;233,406;296,406" d="M 170 130 L 225 130 Q 233 130 233 138 L 233 398 Q 233 406 241 406 L 296 406" class="a-default" stroke-width="1.5" marker-end="url(#arrowhead)"/>
        <path data-edge-from="df" data-edge-to="wide" data-edge-label="column_name → 具体列" data-edge-key="2" data-edge-id="e3" data-composition-points="848,160;848,376" d="M 848 160 L 848 376" class="a-emphasis" stroke-width="1.8" marker-end="url(#arrowhead-emphasis)"/>

        <!-- Components -->
        <g id="node-ds" data-node-id="ds" data-node-label="crm_dc_data_source" tabindex="0" role="button" aria-label="Focus crm_dc_data_source, source_key + table_name, MySQL · 配置" aria-pressed="false" data-node-kind="database" data-node-sublabel="source_key + table_name" data-node-tag="决定「哪张表」" data-node-context="MySQL · 配置">
          <title>crm_dc_data_source · source_key + table_name · MySQL · 配置 · 决定「哪张表」</title>
          <rect x="50" y="100" width="120" height="60" rx="6" class="c-mask"/>
          <rect x="50" y="100" width="120" height="60" rx="6" class="c-database" stroke-width="1.5"/>
          <g aria-hidden="true" data-semantic-sigil="database" class="semantic-sigil s-database" transform="translate(56 106) scale(0.6875)">
            <ellipse cx="8" cy="4" rx="5" ry="2"/>
            <path d="M3 4v8c0 1.1 2.2 2 5 2s5-.9 5-2V4M3 8c0 1.1 2.2 2 5 2s5-.9 5-2"/>
          </g>
          <text data-detail-anchor x="110" y="128" class="t-primary" font-size="10.3" font-weight="600" text-anchor="middle">crm_dc_data_source</text>
        <text data-detail="context" x="110" y="144" class="t-muted" font-size="8.1" text-anchor="middle">source_key + table_name</text>
        <text data-detail="fine" x="110" y="152" class="t-database" font-size="7" text-anchor="middle">决定「哪张表」</text>
        </g>

        <g id="node-df" data-node-id="df" data-node-label="crm_dc_data_field" tabindex="0" role="button" aria-label="Focus crm_dc_data_field, field_key + column_name, MySQL · 配置" aria-pressed="false" data-node-kind="database" data-node-sublabel="field_key + column_name" data-node-tag="决定「哪一列」" data-node-context="MySQL · 配置">
          <title>crm_dc_data_field · field_key + column_name · MySQL · 配置 · 决定「哪一列」</title>
          <rect x="788" y="100" width="120" height="60" rx="6" class="c-mask"/>
          <rect x="788" y="100" width="120" height="60" rx="6" class="c-database" stroke-width="1.5"/>
          <g aria-hidden="true" data-semantic-sigil="database" class="semantic-sigil s-database" transform="translate(794 106) scale(0.6875)">
            <ellipse cx="8" cy="4" rx="5" ry="2"/>
            <path d="M3 4v8c0 1.1 2.2 2 5 2s5-.9 5-2V4M3 8c0 1.1 2.2 2 5 2s5-.9 5-2"/>
          </g>
          <text data-detail-anchor x="848" y="128" class="t-primary" font-size="10.9" font-weight="600" text-anchor="middle">crm_dc_data_field</text>
        <text data-detail="context" x="848" y="144" class="t-muted" font-size="8.1" text-anchor="middle">field_key + column_name</text>
        <text data-detail="fine" x="848" y="152" class="t-database" font-size="7" text-anchor="middle">决定「哪一列」</text>
        </g>

        <g id="node-wide" data-node-id="wide" data-node-label="user_portraits_wide" tabindex="0" role="button" aria-label="Focus user_portraits_wide, 宽表 · 100 万行, Doris · 数据" aria-pressed="false" data-node-kind="cloud" data-node-sublabel="宽表 · 100 万行" data-node-context="Doris · 数据">
          <title>user_portraits_wide · 宽表 · 100 万行 · Doris · 数据</title>
          <rect x="788" y="376" width="120" height="60" rx="6" class="c-mask"/>
          <rect x="788" y="376" width="120" height="60" rx="6" class="c-cloud" stroke-width="1.5"/>
          <g aria-hidden="true" data-semantic-sigil="cloud" class="semantic-sigil s-cloud" transform="translate(794 382) scale(0.6875)">
            <path d="M4.3 12.5h7.3a2.4 2.4 0 0 0 .2-4.8 4 4 0 0 0-7.5-1.3A3.1 3.1 0 0 0 4.3 12.5Z"/>
          </g>
          <text data-detail-anchor x="848" y="404" class="t-primary" font-size="9.8" font-weight="600" text-anchor="middle">user_portraits_wide</text>
        <text data-detail="context" x="848" y="420" class="t-muted" font-size="9" text-anchor="middle">宽表 · 100 万行</text>
        </g>

        <g id="node-holding" data-node-id="holding" data-node-label="rel_holding" tabindex="0" role="button" aria-label="Focus rel_holding, 持仓 · 132 万行, Doris · 数据" aria-pressed="false" data-node-kind="cloud" data-node-sublabel="持仓 · 132 万行" data-node-context="Doris · 数据">
          <title>rel_holding · 持仓 · 132 万行 · Doris · 数据</title>
          <rect x="50" y="376" width="120" height="60" rx="6" class="c-mask"/>
          <rect x="50" y="376" width="120" height="60" rx="6" class="c-cloud" stroke-width="1.5"/>
          <g aria-hidden="true" data-semantic-sigil="cloud" class="semantic-sigil s-cloud" transform="translate(56 382) scale(0.6875)">
            <path d="M4.3 12.5h7.3a2.4 2.4 0 0 0 .2-4.8 4 4 0 0 0-7.5-1.3A3.1 3.1 0 0 0 4.3 12.5Z"/>
          </g>
          <text data-detail-anchor x="110" y="404" class="t-primary" font-size="11" font-weight="600" text-anchor="middle">rel_holding</text>
        <text data-detail="context" x="110" y="420" class="t-muted" font-size="9" text-anchor="middle">持仓 · 132 万行</text>
        </g>

        <g id="node-product" data-node-id="product" data-node-label="rel_product" tabindex="0" role="button" aria-label="Focus rel_product, 开通产品 · 113 万行, Doris · 数据" aria-pressed="false" data-node-kind="cloud" data-node-sublabel="开通产品 · 113 万行" data-node-context="Doris · 数据">
          <title>rel_product · 开通产品 · 113 万行 · Doris · 数据</title>
          <rect x="296" y="376" width="120" height="60" rx="6" class="c-mask"/>
          <rect x="296" y="376" width="120" height="60" rx="6" class="c-cloud" stroke-width="1.5"/>
          <g aria-hidden="true" data-semantic-sigil="cloud" class="semantic-sigil s-cloud" transform="translate(302 382) scale(0.6875)">
            <path d="M4.3 12.5h7.3a2.4 2.4 0 0 0 .2-4.8 4 4 0 0 0-7.5-1.3A3.1 3.1 0 0 0 4.3 12.5Z"/>
          </g>
          <text data-detail-anchor x="356" y="404" class="t-primary" font-size="11" font-weight="600" text-anchor="middle">rel_product</text>
        <text data-detail="context" x="356" y="420" class="t-muted" font-size="9" text-anchor="middle">开通产品 · 113 万行</text>
        </g>

        <!-- Connection labels -->
        <g data-detail="context" data-edge-from="ds" data-edge-to="holding" data-edge-label="table_name = rel_holding" data-edge-key="0" data-edge-id="e1">
          <rect x="47.400000000000006" y="174" width="125.19999999999999" height="14" rx="3" class="c-mask"/>
          <text x="110" y="184" class="t-muted" font-size="8" text-anchor="middle">table_name = rel_holding</text>
        </g>
        <g data-detail="context" data-edge-from="ds" data-edge-to="product" data-edge-label="table_name = rel_product" data-edge-key="1" data-edge-id="e2">
          <rect x="170.4" y="270" width="125.19999999999999" height="14" rx="3" class="c-mask"/>
          <text x="233" y="280" class="t-muted" font-size="8" text-anchor="middle">table_name = rel_product</text>
        </g>
        <g data-detail="context" data-edge-from="df" data-edge-to="wide" data-edge-label="column_name → 具体列" data-edge-key="2" data-edge-id="e3">
          <rect x="795" y="170" width="106" height="14" rx="3" class="c-mask"/>
          <text x="848" y="180" class="t-backend" font-size="8" text-anchor="middle">column_name → 具体列</text>
        </g>

        <!-- Legend -->
        <g data-legend data-legend-bridge>
          <text x="40" y="488" class="t-primary" font-size="12" font-weight="650">Legend</text>
          <g data-legend-semantic-kind="database" data-legend-kind="database" data-legend-label="Database" data-legend-x="40" data-legend-baseline="508" data-legend-width="83">
            <rect x="40" y="499" width="16" height="10" rx="2.5" class="c-database" stroke-width="1"/>
            <text x="62" y="508" class="t-muted" font-size="10" font-weight="500">Database</text>
          </g>
          <g data-legend-semantic-kind="cloud" data-legend-kind="cloud" data-legend-label="Cloud" data-legend-x="145" data-legend-baseline="508" data-legend-width="68">
            <rect x="145" y="499" width="16" height="10" rx="2.5" class="c-cloud" stroke-width="1"/>
            <text x="167" y="508" class="t-muted" font-size="10" font-weight="500">Cloud</text>
          </g>
        </g>
      </svg>