<svg viewBox="0 0 1004 784" role="img" aria-labelledby="archify-diagram-title archify-diagram-description" data-preset="classic" data-quality-profile="showcase">
        <title id="archify-diagram-title">五个极易混的词，其实是五层</title>
        <desc id="archify-diagram-description">从你写的那行代码，到真正跑它的那个线程 —— 一层套一层</desc>
        <!-- Definitions -->
        <defs>
          <marker id="arrowhead" markerWidth="10" markerHeight="7" refX="9" refY="3.5" orient="auto">
            <polygon points="0 0, 10 3.5, 0 7" class="m-default" />
          </marker>
          <marker id="arrowhead-emphasis" markerWidth="10" markerHeight="7" refX="9" refY="3.5" orient="auto">
            <polygon points="0 0, 10 3.5, 0 7" class="m-emphasis" />
          </marker>
          <marker id="arrowhead-security" markerWidth="10" markerHeight="7" refX="9" refY="3.5" orient="auto">
            <polygon points="0 0, 10 3.5, 0 7" class="m-security" />
          </marker>
          <marker id="arrowhead-dashed" markerWidth="10" markerHeight="7" refX="9" refY="3.5" orient="auto">
            <polygon points="0 0, 10 3.5, 0 7" class="m-dashed" />
          </marker>
          <pattern id="grid" width="40" height="40" patternUnits="userSpaceOnUse">
            <path d="M 40 0 L 0 0 0 40" class="c-grid" stroke-width="0.5"/>
          </pattern>
        </defs>

        <!-- Background Grid -->
        <rect width="100%" height="100%" fill="url(#grid)" />

        <!-- Boundaries (behind everything) -->
        <rect data-graph-role="structural-frame" data-composition-frame-kind="region" data-composition-frame-id="0" x="316" y="56" width="308" height="240" rx="12" class="c-region" stroke-width="1"/>
        <text x="324" y="74" class="t-cloud" font-size="9" font-weight="600">逻辑 · 客户端生成</text>

        <rect data-graph-role="structural-frame" data-composition-frame-kind="region" data-composition-frame-id="1" x="316" y="336" width="648" height="380" rx="12" class="c-region" stroke-width="1"/>
        <text x="324" y="354" class="t-cloud" font-size="9" font-weight="600">物理 · 集群上真跑的东西</text>

        <!-- Connection paths (before components for correct z-order) -->
        <path data-edge-from="op" data-edge-to="sub" data-edge-label="切成 N 份" data-edge-key="0" data-edge-id="e1" data-composition-points="470,136;470,220" d="M 470 136 L 470 220" class="a-default" stroke-width="1.5" marker-end="url(#arrowhead)"/>
        <path data-edge-from="sub" data-edge-to="task" data-edge-label="落进某个 Task" data-edge-key="1" data-edge-id="e2" data-composition-points="470,276;470,360" d="M 470 276 L 470 360" class="a-default" stroke-width="1.5" marker-end="url(#arrowhead)"/>
        <path data-edge-from="task" data-edge-to="slot" data-edge-label="一个 Slot 跑一个" data-edge-key="2" data-edge-id="e3" data-composition-points="470,416;470,500" d="M 470 416 L 470 500" class="a-default" stroke-width="1.5" marker-end="url(#arrowhead)"/>
        <path data-edge-from="slot" data-edge-to="tm" data-edge-label="这份配额是它划的" data-edge-key="3" data-edge-id="e4" data-composition-points="470,556;470,640" d="M 470 556 L 470 640" class="a-default" stroke-width="1.5" marker-end="url(#arrowhead)"/>
        <path data-edge-from="jm" data-edge-to="tm" data-edge-label="调度它" data-edge-key="4" data-edge-id="e5" data-composition-points="700,668;600,668" d="M 700 668 L 600 668" class="a-default" stroke-width="1.5" marker-end="url(#arrowhead)"/>

        <!-- Components -->
        <g id="node-op" data-node-id="op" data-node-label="Operator" tabindex="0" role="button" aria-label="Focus Operator, 逻辑上的一个处理步骤。它没有并行度, 逻辑 · 客户端生成" aria-pressed="false" data-node-kind="backend" data-node-sublabel="逻辑上的一个处理步骤。它没有并行度" data-node-context="逻辑 · 客户端生成">
          <title>Operator · 逻辑上的一个处理步骤。它没有并行度 · 逻辑 · 客户端生成</title>
          <rect x="340" y="80" width="260" height="56" rx="6" class="c-mask"/>
          <rect x="340" y="80" width="260" height="56" rx="6" class="c-backend" stroke-width="1.5"/>
          <g aria-hidden="true" data-semantic-sigil="backend" class="semantic-sigil s-backend" transform="translate(346 86) scale(0.6875)">
            <path d="M6 3 3 8l3 5M10 3l3 5-3 5"/>
          </g>
          <text data-detail-anchor x="470" y="106" class="t-primary" font-size="11" font-weight="600" text-anchor="middle">Operator</text>
        <text data-detail="context" x="470" y="122" class="t-muted" font-size="9" text-anchor="middle">逻辑上的一个处理步骤。它没有并行度</text>
        </g>

        <g id="node-sub" data-node-id="sub" data-node-label="Subtask" tabindex="0" role="button" aria-label="Focus Subtask, 算子的一个并行副本。parallelism = 3 就有 3 个, 逻辑 · 客户端生成" aria-pressed="false" data-node-kind="backend" data-node-sublabel="算子的一个并行副本。parallelism = 3 就有 3 个" data-node-context="逻辑 · 客户端生成">
          <title>Subtask · 算子的一个并行副本。parallelism = 3 就有 3 个 · 逻辑 · 客户端生成</title>
          <rect x="340" y="220" width="260" height="56" rx="6" class="c-mask"/>
          <rect x="340" y="220" width="260" height="56" rx="6" class="c-backend" stroke-width="1.5"/>
          <g aria-hidden="true" data-semantic-sigil="backend" class="semantic-sigil s-backend" transform="translate(346 226) scale(0.6875)">
            <path d="M6 3 3 8l3 5M10 3l3 5-3 5"/>
          </g>
          <text data-detail-anchor x="470" y="246" class="t-primary" font-size="11" font-weight="600" text-anchor="middle">Subtask</text>
        <text data-detail="context" x="470" y="262" class="t-muted" font-size="9" text-anchor="middle">算子的一个并行副本。parallelism = 3 就有 3 个</text>
        </g>

        <g id="node-task" data-node-id="task" data-node-label="Task" tabindex="0" role="button" aria-label="Focus Task, 一串链起来的算子 · 真正被调度的执行单元, 物理 · 集群上真跑的东西" aria-pressed="false" data-node-kind="cloud" data-node-sublabel="一串链起来的算子 · 真正被调度的执行单元" data-node-context="物理 · 集群上真跑的东西">
          <title>Task · 一串链起来的算子 · 真正被调度的执行单元 · 物理 · 集群上真跑的东西</title>
          <rect x="340" y="360" width="260" height="56" rx="6" class="c-mask"/>
          <rect x="340" y="360" width="260" height="56" rx="6" class="c-cloud" stroke-width="1.5"/>
          <g aria-hidden="true" data-semantic-sigil="cloud" class="semantic-sigil s-cloud" transform="translate(346 366) scale(0.6875)">
            <path d="M4.3 12.5h7.3a2.4 2.4 0 0 0 .2-4.8 4 4 0 0 0-7.5-1.3A3.1 3.1 0 0 0 4.3 12.5Z"/>
          </g>
          <text data-detail-anchor x="470" y="386" class="t-primary" font-size="11" font-weight="600" text-anchor="middle">Task</text>
        <text data-detail="context" x="470" y="402" class="t-muted" font-size="9" text-anchor="middle">一串链起来的算子 · 真正被调度的执行单元</text>
        </g>

        <g id="node-slot" data-node-id="slot" data-node-label="Slot" tabindex="0" role="button" aria-label="Focus Slot, TaskManager 里划出来的一份资源配额, 物理 · 集群上真跑的东西" aria-pressed="false" data-node-kind="cloud" data-node-sublabel="TaskManager 里划出来的一份资源配额" data-node-context="物理 · 集群上真跑的东西">
          <title>Slot · TaskManager 里划出来的一份资源配额 · 物理 · 集群上真跑的东西</title>
          <rect x="340" y="500" width="260" height="56" rx="6" class="c-mask"/>
          <rect x="340" y="500" width="260" height="56" rx="6" class="c-cloud" stroke-width="1.5"/>
          <g aria-hidden="true" data-semantic-sigil="cloud" class="semantic-sigil s-cloud" transform="translate(346 506) scale(0.6875)">
            <path d="M4.3 12.5h7.3a2.4 2.4 0 0 0 .2-4.8 4 4 0 0 0-7.5-1.3A3.1 3.1 0 0 0 4.3 12.5Z"/>
          </g>
          <text data-detail-anchor x="470" y="526" class="t-primary" font-size="11" font-weight="600" text-anchor="middle">Slot</text>
        <text data-detail="context" x="470" y="542" class="t-muted" font-size="9" text-anchor="middle">TaskManager 里划出来的一份资源配额</text>
        </g>

        <g id="node-tm" data-node-id="tm" data-node-label="TaskManager" tabindex="0" role="button" aria-label="Focus TaskManager, 干活的 JVM 进程，跑一个或多个 Task, 物理 · 集群上真跑的东西" aria-pressed="false" data-node-kind="cloud" data-node-sublabel="干活的 JVM 进程，跑一个或多个 Task" data-node-context="物理 · 集群上真跑的东西">
          <title>TaskManager · 干活的 JVM 进程，跑一个或多个 Task · 物理 · 集群上真跑的东西</title>
          <rect x="340" y="640" width="260" height="56" rx="6" class="c-mask"/>
          <rect x="340" y="640" width="260" height="56" rx="6" class="c-cloud" stroke-width="1.5"/>
          <g aria-hidden="true" data-semantic-sigil="cloud" class="semantic-sigil s-cloud" transform="translate(346 646) scale(0.6875)">
            <path d="M4.3 12.5h7.3a2.4 2.4 0 0 0 .2-4.8 4 4 0 0 0-7.5-1.3A3.1 3.1 0 0 0 4.3 12.5Z"/>
          </g>
          <text data-detail-anchor x="470" y="666" class="t-primary" font-size="11" font-weight="600" text-anchor="middle">TaskManager</text>
        <text data-detail="context" x="470" y="682" class="t-muted" font-size="9" text-anchor="middle">干活的 JVM 进程，跑一个或多个 Task</text>
        </g>

        <g id="node-jm" data-node-id="jm" data-node-label="JobManager" tabindex="0" role="button" aria-label="Focus JobManager, 管事：调度 + 检查点。它不干活, 物理 · 集群上真跑的东西" aria-pressed="false" data-node-kind="security" data-node-sublabel="管事：调度 + 检查点。它不干活" data-node-context="物理 · 集群上真跑的东西">
          <title>JobManager · 管事：调度 + 检查点。它不干活 · 物理 · 集群上真跑的东西</title>
          <rect x="700" y="640" width="240" height="56" rx="6" class="c-mask"/>
          <rect x="700" y="640" width="240" height="56" rx="6" class="c-security" stroke-width="1.5"/>
          <g aria-hidden="true" data-semantic-sigil="security" class="semantic-sigil s-security" transform="translate(706 646) scale(0.6875)">
            <path d="M8 2.2 13 4v3.5c0 3.1-1.8 5.4-5 6.5-3.2-1.1-5-3.4-5-6.5V4Z"/>
            <path d="m5.8 8 1.5 1.5 3-3"/>
          </g>
          <text data-detail-anchor x="820" y="666" class="t-primary" font-size="11" font-weight="600" text-anchor="middle">JobManager</text>
        <text data-detail="context" x="820" y="682" class="t-muted" font-size="9" text-anchor="middle">管事：调度 + 检查点。它不干活</text>
        </g>

        <!-- Connection labels -->
        <g data-detail="context" data-edge-from="op" data-edge-to="sub" data-edge-label="切成 N 份" data-edge-key="0" data-edge-id="e1">
          <rect x="443.4" y="174" width="53.199999999999996" height="14" rx="3" class="c-mask"/>
          <text x="470" y="184" class="t-muted" font-size="8" text-anchor="middle">切成 N 份</text>
        </g>
        <g data-detail="context" data-edge-from="sub" data-edge-to="task" data-edge-label="落进某个 Task" data-edge-key="1" data-edge-id="e2">
          <rect x="433.8" y="314" width="72.4" height="14" rx="3" class="c-mask"/>
          <text x="470" y="324" class="t-muted" font-size="8" text-anchor="middle">落进某个 Task</text>
        </g>
        <g data-detail="context" data-edge-from="task" data-edge-to="slot" data-edge-label="一个 Slot 跑一个" data-edge-key="2" data-edge-id="e3">
          <rect x="426.6" y="454" width="86.8" height="14" rx="3" class="c-mask"/>
          <text x="470" y="464" class="t-muted" font-size="8" text-anchor="middle">一个 Slot 跑一个</text>
        </g>
        <g data-detail="context" data-edge-from="slot" data-edge-to="tm" data-edge-label="这份配额是它划的" data-edge-key="3" data-edge-id="e4">
          <rect x="426.6" y="594" width="86.8" height="14" rx="3" class="c-mask"/>
          <text x="470" y="604" class="t-muted" font-size="8" text-anchor="middle">这份配额是它划的</text>
        </g>
        <g data-detail="context" data-edge-from="jm" data-edge-to="tm" data-edge-label="调度它" data-edge-key="4" data-edge-id="e5">
          <rect x="630.6" y="648" width="38.8" height="14" rx="3" class="c-mask"/>
          <text x="650" y="658" class="t-muted" font-size="8" text-anchor="middle">调度它</text>
        </g>

        <!-- Legend -->
        <g data-legend data-legend-bridge>
          <text x="40" y="748" class="t-primary" font-size="12" font-weight="650">Legend</text>
          <g data-legend-semantic-kind="backend" data-legend-kind="backend" data-legend-label="Backend" data-legend-x="40" data-legend-baseline="768" data-legend-width="78">
            <rect x="40" y="759" width="16" height="10" rx="2.5" class="c-backend" stroke-width="1"/>
            <text x="62" y="768" class="t-muted" font-size="10" font-weight="500">Backend</text>
          </g>
          <g data-legend-semantic-kind="cloud" data-legend-kind="cloud" data-legend-label="Cloud" data-legend-x="140" data-legend-baseline="768" data-legend-width="68">
            <rect x="140" y="759" width="16" height="10" rx="2.5" class="c-cloud" stroke-width="1"/>
            <text x="162" y="768" class="t-muted" font-size="10" font-weight="500">Cloud</text>
          </g>
          <g data-legend-semantic-kind="security" data-legend-kind="security" data-legend-label="Security" data-legend-x="230" data-legend-baseline="768" data-legend-width="83">
            <rect x="230" y="759" width="16" height="10" rx="2.5" class="c-security" stroke-width="1"/>
            <text x="252" y="768" class="t-muted" font-size="10" font-weight="500">Security</text>
          </g>
        </g>
      </svg>