<svg viewBox="0 0 790 748" role="img" aria-labelledby="archify-diagram-title archify-diagram-description" data-preset="classic" data-quality-profile="showcase">
        <title id="archify-diagram-title">Flink 集群：谁调度谁，什么在什么里面</title>
        <desc id="archify-diagram-description">A architecture diagram generated by Archify.</desc>
        <!-- Definitions -->
        <defs>
          <marker id="arrowhead" markerWidth="10" markerHeight="7" refX="9" refY="3.5" orient="auto">
            <polygon points="0 0, 10 3.5, 0 7" class="m-default" />
          </marker>
          <marker id="arrowhead-emphasis" markerWidth="10" markerHeight="7" refX="9" refY="3.5" orient="auto">
            <polygon points="0 0, 10 3.5, 0 7" class="m-emphasis" />
          </marker>
          <marker id="arrowhead-security" markerWidth="10" markerHeight="7" refX="9" refY="3.5" orient="auto">
            <polygon points="0 0, 10 3.5, 0 7" class="m-security" />
          </marker>
          <marker id="arrowhead-dashed" markerWidth="10" markerHeight="7" refX="9" refY="3.5" orient="auto">
            <polygon points="0 0, 10 3.5, 0 7" class="m-dashed" />
          </marker>
          <pattern id="grid" width="40" height="40" patternUnits="userSpaceOnUse">
            <path d="M 40 0 L 0 0 0 40" class="c-grid" stroke-width="0.5"/>
          </pattern>
        </defs>

        <!-- Background Grid -->
        <rect width="100%" height="100%" fill="url(#grid)" />

        <!-- Boundaries (behind everything) -->
        <rect data-graph-role="structural-frame" data-composition-frame-kind="region" data-composition-frame-id="0" x="10" y="318" width="740" height="114" rx="12" class="c-region" stroke-width="1"/>
        <text x="18" y="336" class="t-cloud" font-size="9" font-weight="600">TaskManager-1 · 一台机器 / 一个 JVM</text>

        <rect data-graph-role="structural-frame" data-composition-frame-kind="region" data-composition-frame-id="1" x="10" y="452" width="740" height="114" rx="12" class="c-region" stroke-width="1"/>
        <text x="18" y="470" class="t-cloud" font-size="9" font-weight="600">TaskManager-2 · 另一台机器 / 一个 JVM</text>

        <!-- Connection paths (before components for correct z-order) -->
        <path data-edge-from="client" data-edge-to="jm" data-edge-label="提交 JobGraph" data-edge-key="0" data-edge-id="c1" data-composition-points="380,144;380,214" d="M 380 144 L 380 214" class="a-default" stroke-width="1.5" marker-end="url(#arrowhead)"/>
        <path data-edge-from="jm" data-edge-to="u1" data-edge-label="分配 Task / Slot" data-edge-key="1" data-edge-id="c2" data-composition-points="280,246;260,246;260,380;240,380" d="M 280 246 L 268 246 Q 260 246 260 254 L 260 372 Q 260 380 252 380 L 240 380" class="a-default" stroke-width="1.5" marker-end="url(#arrowhead)"/>
        <path data-edge-from="u1" data-edge-to="d1" data-edge-label="keyBy 哈希重分区" data-edge-key="2" data-edge-id="c4" data-composition-points="140,412;140,482" d="M 140 412 L 140 482" class="a-emphasis" stroke-width="1.8" marker-end="url(#arrowhead-emphasis)"/>
        <path data-edge-from="u2" data-edge-to="d2" data-edge-key="3" data-edge-id="c5" data-composition-points="620,412;620,482" d="M 620 412 L 620 482" class="a-emphasis" stroke-width="1.8" marker-end="url(#arrowhead-emphasis)"/>
        <path data-edge-from="d1" data-edge-to="sink" data-edge-label="写出结果" data-edge-key="4" data-edge-id="c6" data-composition-points="240,514;260,514;260,648;280,648" d="M 240 514 L 252 514 Q 260 514 260 522 L 260 640 Q 260 648 268 648 L 280 648" class="a-default" stroke-width="1.5" marker-end="url(#arrowhead)"/>

        <!-- Components -->
        <g id="node-client" data-node-id="client" data-node-label="Flink Client" tabindex="0" role="button" aria-label="Focus Flink Client, 提交 JAR / SQL Job, Architecture component" aria-pressed="false" data-node-kind="external" data-node-sublabel="提交 JAR / SQL Job" data-node-context="Architecture component">
          <title>Flink Client · 提交 JAR / SQL Job · Architecture component</title>
          <rect x="280" y="80" width="200" height="64" rx="6" class="c-mask"/>
          <rect x="280" y="80" width="200" height="64" rx="6" class="c-external" stroke-width="1.5"/>
          <g aria-hidden="true" data-semantic-sigil="external" class="semantic-sigil s-external" transform="translate(286 86) scale(0.6875)">
            <rect x="2.5" y="5" width="8.5" height="8" rx="1.5"/>
            <path d="M8 2.5h5.5V8M13.5 2.5 7.5 8.5"/>
          </g>
          <text data-detail-anchor x="380" y="110" class="t-primary" font-size="11" font-weight="600" text-anchor="middle">Flink Client</text>
        <text data-detail="context" x="380" y="126" class="t-muted" font-size="9" text-anchor="middle">提交 JAR / SQL Job</text>
        </g>

        <g id="node-jm" data-node-id="jm" data-node-label="JobManager" tabindex="0" role="button" aria-label="Focus JobManager, 调度 Task · 协调 Checkpoint, Architecture component" aria-pressed="false" data-node-kind="backend" data-node-sublabel="调度 Task · 协调 Checkpoint" data-node-context="Architecture component">
          <title>JobManager · 调度 Task · 协调 Checkpoint · Architecture component</title>
          <rect x="280" y="214" width="200" height="64" rx="6" class="c-mask"/>
          <rect x="280" y="214" width="200" height="64" rx="6" class="c-backend" stroke-width="1.5"/>
          <g aria-hidden="true" data-semantic-sigil="backend" class="semantic-sigil s-backend" transform="translate(286 220) scale(0.6875)">
            <path d="M6 3 3 8l3 5M10 3l3 5-3 5"/>
          </g>
          <text data-detail-anchor x="380" y="244" class="t-primary" font-size="11" font-weight="600" text-anchor="middle">JobManager</text>
        <text data-detail="context" x="380" y="260" class="t-muted" font-size="9" text-anchor="middle">调度 Task · 协调 Checkpoint</text>
        </g>

        <g id="node-u1" data-node-id="u1" data-node-label="Slot 0" tabindex="0" role="button" aria-label="Focus Slot 0, Source + Map + Filter, TaskManager-1 · 一台机器 / 一个 JVM" aria-pressed="false" data-node-kind="messagebus" data-node-sublabel="Source + Map + Filter" data-node-context="TaskManager-1 · 一台机器 / 一个 JVM">
          <title>Slot 0 · Source + Map + Filter · TaskManager-1 · 一台机器 / 一个 JVM</title>
          <rect x="40" y="348" width="200" height="64" rx="6" class="c-mask"/>
          <rect x="40" y="348" width="200" height="64" rx="6" class="c-messagebus" stroke-width="1.5"/>
          <g aria-hidden="true" data-semantic-sigil="messagebus" class="semantic-sigil s-messagebus" transform="translate(46 354) scale(0.6875)">
            <path d="M2.5 4.5h11M2.5 8h11M2.5 11.5h11"/>
            <circle cx="5" cy="4.5" r="1" class="sigil-fill"/>
            <circle cx="10.5" cy="8" r="1" class="sigil-fill"/>
            <circle cx="7" cy="11.5" r="1" class="sigil-fill"/>
          </g>
          <text data-detail-anchor x="140" y="378" class="t-primary" font-size="11" font-weight="600" text-anchor="middle">Slot 0</text>
        <text data-detail="context" x="140" y="394" class="t-muted" font-size="9" text-anchor="middle">Source + Map + Filter</text>
        </g>

        <g id="node-u2" data-node-id="u2" data-node-label="Slot 1" tabindex="0" role="button" aria-label="Focus Slot 1, Source + Map + Filter, TaskManager-1 · 一台机器 / 一个 JVM" aria-pressed="false" data-node-kind="messagebus" data-node-sublabel="Source + Map + Filter" data-node-context="TaskManager-1 · 一台机器 / 一个 JVM">
          <title>Slot 1 · Source + Map + Filter · TaskManager-1 · 一台机器 / 一个 JVM</title>
          <rect x="520" y="348" width="200" height="64" rx="6" class="c-mask"/>
          <rect x="520" y="348" width="200" height="64" rx="6" class="c-messagebus" stroke-width="1.5"/>
          <g aria-hidden="true" data-semantic-sigil="messagebus" class="semantic-sigil s-messagebus" transform="translate(526 354) scale(0.6875)">
            <path d="M2.5 4.5h11M2.5 8h11M2.5 11.5h11"/>
            <circle cx="5" cy="4.5" r="1" class="sigil-fill"/>
            <circle cx="10.5" cy="8" r="1" class="sigil-fill"/>
            <circle cx="7" cy="11.5" r="1" class="sigil-fill"/>
          </g>
          <text data-detail-anchor x="620" y="378" class="t-primary" font-size="11" font-weight="600" text-anchor="middle">Slot 1</text>
        <text data-detail="context" x="620" y="394" class="t-muted" font-size="9" text-anchor="middle">Source + Map + Filter</text>
        </g>

        <g id="node-d1" data-node-id="d1" data-node-label="Slot 0" tabindex="0" role="button" aria-label="Focus Slot 0, Aggregate · u01 / u04, TaskManager-2 · 另一台机器 / 一个 JVM" aria-pressed="false" data-node-kind="database" data-node-sublabel="Aggregate · u01 / u04" data-node-context="TaskManager-2 · 另一台机器 / 一个 JVM">
          <title>Slot 0 · Aggregate · u01 / u04 · TaskManager-2 · 另一台机器 / 一个 JVM</title>
          <rect x="40" y="482" width="200" height="64" rx="6" class="c-mask"/>
          <rect x="40" y="482" width="200" height="64" rx="6" class="c-database" stroke-width="1.5"/>
          <g aria-hidden="true" data-semantic-sigil="database" class="semantic-sigil s-database" transform="translate(46 488) scale(0.6875)">
            <ellipse cx="8" cy="4" rx="5" ry="2"/>
            <path d="M3 4v8c0 1.1 2.2 2 5 2s5-.9 5-2V4M3 8c0 1.1 2.2 2 5 2s5-.9 5-2"/>
          </g>
          <text data-detail-anchor x="140" y="512" class="t-primary" font-size="11" font-weight="600" text-anchor="middle">Slot 0</text>
        <text data-detail="context" x="140" y="528" class="t-muted" font-size="9" text-anchor="middle">Aggregate · u01 / u04</text>
        </g>

        <g id="node-d2" data-node-id="d2" data-node-label="Slot 1" tabindex="0" role="button" aria-label="Focus Slot 1, Aggregate · u02 / u05, TaskManager-2 · 另一台机器 / 一个 JVM" aria-pressed="false" data-node-kind="database" data-node-sublabel="Aggregate · u02 / u05" data-node-context="TaskManager-2 · 另一台机器 / 一个 JVM">
          <title>Slot 1 · Aggregate · u02 / u05 · TaskManager-2 · 另一台机器 / 一个 JVM</title>
          <rect x="520" y="482" width="200" height="64" rx="6" class="c-mask"/>
          <rect x="520" y="482" width="200" height="64" rx="6" class="c-database" stroke-width="1.5"/>
          <g aria-hidden="true" data-semantic-sigil="database" class="semantic-sigil s-database" transform="translate(526 488) scale(0.6875)">
            <ellipse cx="8" cy="4" rx="5" ry="2"/>
            <path d="M3 4v8c0 1.1 2.2 2 5 2s5-.9 5-2V4M3 8c0 1.1 2.2 2 5 2s5-.9 5-2"/>
          </g>
          <text data-detail-anchor x="620" y="512" class="t-primary" font-size="11" font-weight="600" text-anchor="middle">Slot 1</text>
        <text data-detail="context" x="620" y="528" class="t-muted" font-size="9" text-anchor="middle">Aggregate · u02 / u05</text>
        </g>

        <g id="node-sink" data-node-id="sink" data-node-label="ClickHouse / Redis" tabindex="0" role="button" aria-label="Focus ClickHouse / Redis, 下游系统, Architecture component" aria-pressed="false" data-node-kind="cloud" data-node-sublabel="下游系统" data-node-context="Architecture component">
          <title>ClickHouse / Redis · 下游系统 · Architecture component</title>
          <rect x="280" y="616" width="200" height="64" rx="6" class="c-mask"/>
          <rect x="280" y="616" width="200" height="64" rx="6" class="c-cloud" stroke-width="1.5"/>
          <g aria-hidden="true" data-semantic-sigil="cloud" class="semantic-sigil s-cloud" transform="translate(286 622) scale(0.6875)">
            <path d="M4.3 12.5h7.3a2.4 2.4 0 0 0 .2-4.8 4 4 0 0 0-7.5-1.3A3.1 3.1 0 0 0 4.3 12.5Z"/>
          </g>
          <text data-detail-anchor x="380" y="646" class="t-primary" font-size="11" font-weight="600" text-anchor="middle">ClickHouse / Redis</text>
        <text data-detail="context" x="380" y="662" class="t-muted" font-size="9" text-anchor="middle">下游系统</text>
        </g>

        <!-- Connection labels -->
        <g data-detail="context" data-edge-from="client" data-edge-to="jm" data-edge-label="提交 JobGraph" data-edge-key="0" data-edge-id="c1">
          <rect x="343.8" y="148" width="72.4" height="14" rx="3" class="c-mask"/>
          <text x="380" y="158" class="t-muted" font-size="8" text-anchor="middle">提交 JobGraph</text>
        </g>
        <g data-detail="context" data-edge-from="jm" data-edge-to="u1" data-edge-label="分配 Task / Slot" data-edge-key="1" data-edge-id="c2">
          <rect x="216.6" y="293" width="86.8" height="14" rx="3" class="c-mask"/>
          <text x="260" y="303" class="t-muted" font-size="8" text-anchor="middle">分配 Task / Slot</text>
        </g>
        <g data-detail="context" data-edge-from="u1" data-edge-to="d1" data-edge-label="keyBy 哈希重分区" data-edge-key="2" data-edge-id="c4">
          <rect x="96.6" y="416" width="86.8" height="14" rx="3" class="c-mask"/>
          <text x="140" y="426" class="t-backend" font-size="8" text-anchor="middle">keyBy 哈希重分区</text>
        </g>

        <g data-detail="context" data-edge-from="d1" data-edge-to="sink" data-edge-label="写出结果" data-edge-key="4" data-edge-id="c6">
          <rect x="235.8" y="561" width="48.4" height="14" rx="3" class="c-mask"/>
          <text x="260" y="571" class="t-muted" font-size="8" text-anchor="middle">写出结果</text>
        </g>

        <!-- Legend -->
        <g data-legend data-legend-bridge>
          <text x="40" y="712" class="t-primary" font-size="12" font-weight="650">Legend</text>
          <g data-legend-semantic-kind="backend" data-legend-kind="backend" data-legend-label="Backend" data-legend-x="40" data-legend-baseline="732" data-legend-width="78">
            <rect x="40" y="723" width="16" height="10" rx="2.5" class="c-backend" stroke-width="1"/>
            <text x="62" y="732" class="t-muted" font-size="10" font-weight="500">Backend</text>
          </g>
          <g data-legend-semantic-kind="database" data-legend-kind="database" data-legend-label="Database" data-legend-x="140" data-legend-baseline="732" data-legend-width="83">
            <rect x="140" y="723" width="16" height="10" rx="2.5" class="c-database" stroke-width="1"/>
            <text x="162" y="732" class="t-muted" font-size="10" font-weight="500">Database</text>
          </g>
          <g data-legend-semantic-kind="cloud" data-legend-kind="cloud" data-legend-label="Cloud" data-legend-x="245" data-legend-baseline="732" data-legend-width="68">
            <rect x="245" y="723" width="16" height="10" rx="2.5" class="c-cloud" stroke-width="1"/>
            <text x="267" y="732" class="t-muted" font-size="10" font-weight="500">Cloud</text>
          </g>
          <g data-legend-semantic-kind="messagebus" data-legend-kind="messagebus" data-legend-label="Message bus" data-legend-x="335" data-legend-baseline="732" data-legend-width="98">
            <rect x="335" y="723" width="16" height="10" rx="2.5" class="c-messagebus" stroke-width="1"/>
            <text x="357" y="732" class="t-muted" font-size="10" font-weight="500">Message bus</text>
          </g>
          <g data-legend-semantic-kind="external" data-legend-kind="external" data-legend-label="External" data-legend-x="455" data-legend-baseline="732" data-legend-width="83">
            <rect x="455" y="723" width="16" height="10" rx="2.5" class="c-external" stroke-width="1"/>
            <text x="477" y="732" class="t-muted" font-size="10" font-weight="500">External</text>
          </g>
        </g>
      </svg>