<svg viewBox="0 0 770 668" role="img" aria-labelledby="archify-diagram-title archify-diagram-description" data-preset="classic" data-quality-profile="showcase">
        <title id="archify-diagram-title">一条执行流由什么构成：栈随流走，堆随容器走</title>
        <desc id="archify-diagram-description">隔离发生在进程层（页表），执行流是线程，共享也发生在进程层</desc>
        <!-- Definitions -->
        <defs>
          <marker id="arrowhead" markerWidth="10" markerHeight="7" refX="9" refY="3.5" orient="auto">
            <polygon points="0 0, 10 3.5, 0 7" class="m-default" />
          </marker>
          <marker id="arrowhead-emphasis" markerWidth="10" markerHeight="7" refX="9" refY="3.5" orient="auto">
            <polygon points="0 0, 10 3.5, 0 7" class="m-emphasis" />
          </marker>
          <marker id="arrowhead-security" markerWidth="10" markerHeight="7" refX="9" refY="3.5" orient="auto">
            <polygon points="0 0, 10 3.5, 0 7" class="m-security" />
          </marker>
          <marker id="arrowhead-dashed" markerWidth="10" markerHeight="7" refX="9" refY="3.5" orient="auto">
            <polygon points="0 0, 10 3.5, 0 7" class="m-dashed" />
          </marker>
          <pattern id="grid" width="40" height="40" patternUnits="userSpaceOnUse">
            <path d="M 40 0 L 0 0 0 40" class="c-grid" stroke-width="0.5"/>
          </pattern>
        </defs>

        <!-- Background Grid -->
        <rect width="100%" height="100%" fill="url(#grid)" />

        <!-- Boundaries (behind everything) -->
        <rect data-graph-role="structural-frame" data-composition-frame-kind="region" data-composition-frame-id="0" x="30" y="74" width="700" height="250" rx="12" class="c-region" stroke-width="1"/>
        <text x="38" y="92" class="t-cloud" font-size="9" font-weight="600">进程 A —— 页表把这一圈围起来，外面碰不到里面</text>

        <rect data-graph-role="structural-frame" data-composition-frame-kind="region" data-composition-frame-id="1" x="266" y="350" width="464" height="250" rx="12" class="c-region" stroke-width="1"/>
        <text x="274" y="368" class="t-cloud" font-size="9" font-weight="600">进程 B —— 同样的结构，但和 A 完全隔离</text>

        <!-- Connection paths (before components for correct z-order) -->
        <path data-edge-from="sharedA" data-edge-to="ta2" data-edge-label="栈是执行流之间唯一的边界" data-edge-key="0" data-edge-id="e1" data-composition-points="411,166;411,204;380,204;380,242" d="M 411 166 L 411 196 Q 411 204 403 204 L 388 204 Q 380 204 380 212 L 380 242" class="a-dashed" stroke-width="1.5" marker-end="url(#arrowhead-dashed)"/>
        <path data-edge-from="ta2" data-edge-to="sharedB" data-edge-label="两个进程之间只有显式 IPC 通道" data-edge-key="1" data-edge-id="e2" data-composition-points="380,304;380,342;411,342;411,380" d="M 380 304 L 380 334 Q 380 342 388 342 L 403 342 Q 411 342 411 350 L 411 380" class="a-security" stroke-width="1.5" marker-end="url(#arrowhead-security)"/>

        <!-- Components -->
        <g id="node-sharedA" data-node-id="sharedA" data-node-label="共享资产" tabindex="0" role="button" aria-label="Focus 共享资产, 代码段 · 堆 · 文件描述符表, 进程 A —— 页表把这一圈围起来，外面碰不到里面" aria-pressed="false" data-node-kind="database" data-node-sublabel="代码段 · 堆 · 文件描述符表" data-node-tag="线程共用" data-node-context="进程 A —— 页表把这一圈围起来，外面碰不到里面">
          <title>共享资产 · 代码段 · 堆 · 文件描述符表 · 进程 A —— 页表把这一圈围起来，外面碰不到里面 · 线程共用</title>
          <rect x="296" y="104" width="230" height="62" rx="6" class="c-mask"/>
          <rect x="296" y="104" width="230" height="62" rx="6" class="c-database" stroke-width="1.5"/>
          <g aria-hidden="true" data-semantic-sigil="database" class="semantic-sigil s-database" transform="translate(302 110) scale(0.6875)">
            <ellipse cx="8" cy="4" rx="5" ry="2"/>
            <path d="M3 4v8c0 1.1 2.2 2 5 2s5-.9 5-2V4M3 8c0 1.1 2.2 2 5 2s5-.9 5-2"/>
          </g>
          <text data-detail-anchor x="411" y="133" class="t-primary" font-size="11" font-weight="600" text-anchor="middle">共享资产</text>
        <text data-detail="context" x="411" y="149" class="t-muted" font-size="9" text-anchor="middle">代码段 · 堆 · 文件描述符表</text>
        <text data-detail="fine" x="411" y="158" class="t-database" font-size="7" text-anchor="middle">线程共用</text>
        </g>

        <g id="node-ta1" data-node-id="ta1" data-node-label="线程 A1" tabindex="0" role="button" aria-label="Focus 线程 A1, PC + 寄存器 + 私有栈, 进程 A —— 页表把这一圈围起来，外面碰不到里面" aria-pressed="false" data-node-kind="backend" data-node-sublabel="PC + 寄存器 + 私有栈" data-node-context="进程 A —— 页表把这一圈围起来，外面碰不到里面">
          <title>线程 A1 · PC + 寄存器 + 私有栈 · 进程 A —— 页表把这一圈围起来，外面碰不到里面</title>
          <rect x="60" y="242" width="168" height="62" rx="6" class="c-mask"/>
          <rect x="60" y="242" width="168" height="62" rx="6" class="c-backend" stroke-width="1.5"/>
          <g aria-hidden="true" data-semantic-sigil="backend" class="semantic-sigil s-backend" transform="translate(66 248) scale(0.6875)">
            <path d="M6 3 3 8l3 5M10 3l3 5-3 5"/>
          </g>
          <text data-detail-anchor x="144" y="271" class="t-primary" font-size="11" font-weight="600" text-anchor="middle">线程 A1</text>
        <text data-detail="context" x="144" y="287" class="t-muted" font-size="9" text-anchor="middle">PC + 寄存器 + 私有栈</text>
        </g>

        <g id="node-ta2" data-node-id="ta2" data-node-label="线程 A2" tabindex="0" role="button" aria-label="Focus 线程 A2, PC + 寄存器 + 私有栈, 进程 A —— 页表把这一圈围起来，外面碰不到里面" aria-pressed="false" data-node-kind="backend" data-node-sublabel="PC + 寄存器 + 私有栈" data-node-context="进程 A —— 页表把这一圈围起来，外面碰不到里面">
          <title>线程 A2 · PC + 寄存器 + 私有栈 · 进程 A —— 页表把这一圈围起来，外面碰不到里面</title>
          <rect x="296" y="242" width="168" height="62" rx="6" class="c-mask"/>
          <rect x="296" y="242" width="168" height="62" rx="6" class="c-backend" stroke-width="1.5"/>
          <g aria-hidden="true" data-semantic-sigil="backend" class="semantic-sigil s-backend" transform="translate(302 248) scale(0.6875)">
            <path d="M6 3 3 8l3 5M10 3l3 5-3 5"/>
          </g>
          <text data-detail-anchor x="380" y="271" class="t-primary" font-size="11" font-weight="600" text-anchor="middle">线程 A2</text>
        <text data-detail="context" x="380" y="287" class="t-muted" font-size="9" text-anchor="middle">PC + 寄存器 + 私有栈</text>
        </g>

        <g id="node-ta3" data-node-id="ta3" data-node-label="线程 A3" tabindex="0" role="button" aria-label="Focus 线程 A3, PC + 寄存器 + 私有栈, 进程 A —— 页表把这一圈围起来，外面碰不到里面" aria-pressed="false" data-node-kind="backend" data-node-sublabel="PC + 寄存器 + 私有栈" data-node-context="进程 A —— 页表把这一圈围起来，外面碰不到里面">
          <title>线程 A3 · PC + 寄存器 + 私有栈 · 进程 A —— 页表把这一圈围起来，外面碰不到里面</title>
          <rect x="532" y="242" width="168" height="62" rx="6" class="c-mask"/>
          <rect x="532" y="242" width="168" height="62" rx="6" class="c-backend" stroke-width="1.5"/>
          <g aria-hidden="true" data-semantic-sigil="backend" class="semantic-sigil s-backend" transform="translate(538 248) scale(0.6875)">
            <path d="M6 3 3 8l3 5M10 3l3 5-3 5"/>
          </g>
          <text data-detail-anchor x="616" y="271" class="t-primary" font-size="11" font-weight="600" text-anchor="middle">线程 A3</text>
        <text data-detail="context" x="616" y="287" class="t-muted" font-size="9" text-anchor="middle">PC + 寄存器 + 私有栈</text>
        </g>

        <g id="node-sharedB" data-node-id="sharedB" data-node-label="共享资产" tabindex="0" role="button" aria-label="Focus 共享资产, 代码段 · 堆 · 文件描述符表, 进程 B —— 同样的结构，但和 A 完全隔离" aria-pressed="false" data-node-kind="database" data-node-sublabel="代码段 · 堆 · 文件描述符表" data-node-context="进程 B —— 同样的结构，但和 A 完全隔离">
          <title>共享资产 · 代码段 · 堆 · 文件描述符表 · 进程 B —— 同样的结构，但和 A 完全隔离</title>
          <rect x="296" y="380" width="230" height="62" rx="6" class="c-mask"/>
          <rect x="296" y="380" width="230" height="62" rx="6" class="c-database" stroke-width="1.5"/>
          <g aria-hidden="true" data-semantic-sigil="database" class="semantic-sigil s-database" transform="translate(302 386) scale(0.6875)">
            <ellipse cx="8" cy="4" rx="5" ry="2"/>
            <path d="M3 4v8c0 1.1 2.2 2 5 2s5-.9 5-2V4M3 8c0 1.1 2.2 2 5 2s5-.9 5-2"/>
          </g>
          <text data-detail-anchor x="411" y="409" class="t-primary" font-size="11" font-weight="600" text-anchor="middle">共享资产</text>
        <text data-detail="context" x="411" y="425" class="t-muted" font-size="9" text-anchor="middle">代码段 · 堆 · 文件描述符表</text>
        </g>

        <g id="node-tb1" data-node-id="tb1" data-node-label="线程 B1" tabindex="0" role="button" aria-label="Focus 线程 B1, PC + 寄存器 + 私有栈, 进程 B —— 同样的结构，但和 A 完全隔离" aria-pressed="false" data-node-kind="backend" data-node-sublabel="PC + 寄存器 + 私有栈" data-node-context="进程 B —— 同样的结构，但和 A 完全隔离">
          <title>线程 B1 · PC + 寄存器 + 私有栈 · 进程 B —— 同样的结构，但和 A 完全隔离</title>
          <rect x="532" y="518" width="168" height="62" rx="6" class="c-mask"/>
          <rect x="532" y="518" width="168" height="62" rx="6" class="c-backend" stroke-width="1.5"/>
          <g aria-hidden="true" data-semantic-sigil="backend" class="semantic-sigil s-backend" transform="translate(538 524) scale(0.6875)">
            <path d="M6 3 3 8l3 5M10 3l3 5-3 5"/>
          </g>
          <text data-detail-anchor x="616" y="547" class="t-primary" font-size="11" font-weight="600" text-anchor="middle">线程 B1</text>
        <text data-detail="context" x="616" y="563" class="t-muted" font-size="9" text-anchor="middle">PC + 寄存器 + 私有栈</text>
        </g>

        <!-- Connection labels -->
        <g data-detail="context" data-edge-from="sharedA" data-edge-to="ta2" data-edge-label="栈是执行流之间唯一的边界" data-edge-key="0" data-edge-id="e1">
          <rect x="332.9" y="214" width="125.19999999999999" height="14" rx="3" class="c-mask"/>
          <text x="395.5" y="224" class="t-messagebus" font-size="8" text-anchor="middle">栈是执行流之间唯一的边界</text>
        </g>
        <g data-detail="context" data-edge-from="ta2" data-edge-to="sharedB" data-edge-label="两个进程之间只有显式 IPC 通道" data-edge-key="1" data-edge-id="e2">
          <rect x="360.9" y="352" width="149.2" height="14" rx="3" class="c-mask"/>
          <text x="435.5" y="362" class="t-security" font-size="8" text-anchor="middle">两个进程之间只有显式 IPC 通道</text>
        </g>

        <!-- Legend -->
        <g data-legend data-legend-bridge>
          <text x="40" y="632" class="t-primary" font-size="12" font-weight="650">Legend</text>
          <g data-legend-semantic-kind="backend" data-legend-kind="backend" data-legend-label="Backend" data-legend-x="40" data-legend-baseline="652" data-legend-width="78">
            <rect x="40" y="643" width="16" height="10" rx="2.5" class="c-backend" stroke-width="1"/>
            <text x="62" y="652" class="t-muted" font-size="10" font-weight="500">Backend</text>
          </g>
          <g data-legend-semantic-kind="database" data-legend-kind="database" data-legend-label="Database" data-legend-x="140" data-legend-baseline="652" data-legend-width="83">
            <rect x="140" y="643" width="16" height="10" rx="2.5" class="c-database" stroke-width="1"/>
            <text x="162" y="652" class="t-muted" font-size="10" font-weight="500">Database</text>
          </g>
        </g>
      </svg>