<svg viewBox="0 0 1200 560" role="img" aria-labelledby="archify-diagram-title archify-diagram-description" data-preset="classic" data-quality-profile="showcase">
        <title id="archify-diagram-title">两个容器：哪些是自己的，哪些是同一份</title>
        <desc id="archify-diagram-description">同一个 Pod 里的两个容器 —— 各复制一份的是 PID 和 MNT，共用一份的是 NET 和 IPC</desc>
        <!-- Definitions -->
        <defs>
          <marker id="arrowhead" markerWidth="10" markerHeight="7" refX="9" refY="3.5" orient="auto">
            <polygon points="0 0, 10 3.5, 0 7" class="m-default" />
          </marker>
          <marker id="arrowhead-emphasis" markerWidth="10" markerHeight="7" refX="9" refY="3.5" orient="auto">
            <polygon points="0 0, 10 3.5, 0 7" class="m-emphasis" />
          </marker>
          <marker id="arrowhead-security" markerWidth="10" markerHeight="7" refX="9" refY="3.5" orient="auto">
            <polygon points="0 0, 10 3.5, 0 7" class="m-security" />
          </marker>
          <marker id="arrowhead-dashed" markerWidth="10" markerHeight="7" refX="9" refY="3.5" orient="auto">
            <polygon points="0 0, 10 3.5, 0 7" class="m-dashed" />
          </marker>
          <pattern id="grid" width="40" height="40" patternUnits="userSpaceOnUse">
            <path d="M 40 0 L 0 0 0 40" class="c-grid" stroke-width="0.5"/>
          </pattern>
        </defs>

        <!-- Background Grid -->
        <rect width="100%" height="100%" fill="url(#grid)" />

        <!-- Boundaries (behind everything) -->
        <rect data-graph-role="structural-frame" data-composition-frame-kind="region" data-composition-frame-id="0" x="30" y="100" width="380" height="246" rx="12" class="c-region" stroke-width="1"/>
        <text x="38" y="118" class="t-cloud" font-size="9" font-weight="600">容器 A</text>

        <rect data-graph-role="structural-frame" data-composition-frame-kind="region" data-composition-frame-id="1" x="640" y="100" width="400" height="246" rx="12" class="c-region" stroke-width="1"/>
        <text x="648" y="118" class="t-cloud" font-size="9" font-weight="600">容器 B</text>

        <rect data-graph-role="structural-frame" data-composition-frame-kind="region" data-composition-frame-id="2" x="6" y="76" width="1058" height="270" rx="12" class="c-region" stroke-width="1"/>
        <text x="14" y="94" class="t-cloud" font-size="9" font-weight="600">这台机器</text>

        <!-- Connection paths (before components for correct z-order) -->
        <path data-edge-from="procA" data-edge-to="pidA" data-edge-label="各自一份" data-edge-key="0" data-edge-id="e1" data-composition-points="151,166;151,218;125,218;125,270" d="M 151 166 L 151 210 Q 151 218 143 218 L 133 218 Q 125 218 125 226 L 125 270" class="a-default" stroke-width="1.5" marker-end="url(#arrowhead)"/>
        <path data-edge-from="procA" data-edge-to="mntA" data-edge-key="1" data-edge-id="e2" data-composition-points="165,166;165,218;320,218;320,270" d="M 165 166 L 165 210 Q 165 218 173 218 L 312 218 Q 320 218 320 226 L 320 270" class="a-default" stroke-width="1.5" marker-end="url(#arrowhead)"/>
        <path data-edge-from="procB" data-edge-to="pidB" data-edge-key="2" data-edge-id="e3" data-composition-points="775,166;775,218;735,218;735,270" d="M 775 166 L 775 210 Q 775 218 767 218 L 743 218 Q 735 218 735 226 L 735 270" class="a-default" stroke-width="1.5" marker-end="url(#arrowhead)"/>
        <path data-edge-from="procB" data-edge-to="mntB" data-edge-key="3" data-edge-id="e4" data-composition-points="789,166;789,218;945,218;945,270" d="M 789 166 L 789 210 Q 789 218 797 218 L 937 218 Q 945 218 945 226 L 945 270" class="a-default" stroke-width="1.5" marker-end="url(#arrowhead)"/>
        <path data-edge-from="shared" data-edge-to="procA" data-edge-label="这一份是共用的" data-edge-key="4" data-edge-id="e5" data-composition-points="495.5,270;495.5,218;179,218;179,166" d="M 495.5 270 L 495.5 226 Q 495.5 218 487.5 218 L 187 218 Q 179 218 179 210 L 179 166" class="a-default" stroke-width="1.5" marker-end="url(#arrowhead)"/>
        <path data-edge-from="shared" data-edge-to="procB" data-edge-label="同一份" data-edge-key="5" data-edge-id="e6" data-composition-points="509.5,270;509.5,218;761,218;761,166" d="M 509.5 270 L 509.5 226 Q 509.5 218 517.5 218 L 753 218 Q 761 218 761 210 L 761 166" class="a-default" stroke-width="1.5" marker-end="url(#arrowhead)"/>

        <!-- Components -->
        <g id="node-procA" data-node-id="procA" data-node-label="nginx 进程" tabindex="0" role="button" aria-label="Focus nginx 进程, 容器 A 的 1 号进程, 这台机器 › 容器 A" aria-pressed="false" data-node-kind="backend" data-node-sublabel="容器 A 的 1 号进程" data-node-context="这台机器 › 容器 A">
          <title>nginx 进程 · 容器 A 的 1 号进程 · 这台机器 › 容器 A</title>
          <rect x="80" y="110" width="170" height="56" rx="6" class="c-mask"/>
          <rect x="80" y="110" width="170" height="56" rx="6" class="c-backend" stroke-width="1.5"/>
          <g aria-hidden="true" data-semantic-sigil="backend" class="semantic-sigil s-backend" transform="translate(86 116) scale(0.6875)">
            <path d="M6 3 3 8l3 5M10 3l3 5-3 5"/>
          </g>
          <text data-detail-anchor x="165" y="136" class="t-primary" font-size="11" font-weight="600" text-anchor="middle">nginx 进程</text>
        <text data-detail="context" x="165" y="152" class="t-muted" font-size="9" text-anchor="middle">容器 A 的 1 号进程</text>
        </g>

        <g id="node-pidA" data-node-id="pidA" data-node-label="PID namespace" tabindex="0" role="button" aria-label="Focus PID namespace, 它自己的一份进程列表, 这台机器 › 容器 A" aria-pressed="false" data-node-kind="database" data-node-sublabel="它自己的一份进程列表" data-node-context="这台机器 › 容器 A">
          <title>PID namespace · 它自己的一份进程列表 · 这台机器 › 容器 A</title>
          <rect x="40" y="270" width="170" height="56" rx="6" class="c-mask"/>
          <rect x="40" y="270" width="170" height="56" rx="6" class="c-database" stroke-width="1.5"/>
          <g aria-hidden="true" data-semantic-sigil="database" class="semantic-sigil s-database" transform="translate(46 276) scale(0.6875)">
            <ellipse cx="8" cy="4" rx="5" ry="2"/>
            <path d="M3 4v8c0 1.1 2.2 2 5 2s5-.9 5-2V4M3 8c0 1.1 2.2 2 5 2s5-.9 5-2"/>
          </g>
          <text data-detail-anchor x="125" y="296" class="t-primary" font-size="11" font-weight="600" text-anchor="middle">PID namespace</text>
        <text data-detail="context" x="125" y="312" class="t-muted" font-size="9" text-anchor="middle">它自己的一份进程列表</text>
        </g>

        <g id="node-mntA" data-node-id="mntA" data-node-label="MNT namespace" tabindex="0" role="button" aria-label="Focus MNT namespace, 它自己的一棵 / 树, 这台机器 › 容器 A" aria-pressed="false" data-node-kind="database" data-node-sublabel="它自己的一棵 / 树" data-node-context="这台机器 › 容器 A">
          <title>MNT namespace · 它自己的一棵 / 树 · 这台机器 › 容器 A</title>
          <rect x="240" y="270" width="160" height="56" rx="6" class="c-mask"/>
          <rect x="240" y="270" width="160" height="56" rx="6" class="c-database" stroke-width="1.5"/>
          <g aria-hidden="true" data-semantic-sigil="database" class="semantic-sigil s-database" transform="translate(246 276) scale(0.6875)">
            <ellipse cx="8" cy="4" rx="5" ry="2"/>
            <path d="M3 4v8c0 1.1 2.2 2 5 2s5-.9 5-2V4M3 8c0 1.1 2.2 2 5 2s5-.9 5-2"/>
          </g>
          <text data-detail-anchor x="320" y="296" class="t-primary" font-size="11" font-weight="600" text-anchor="middle">MNT namespace</text>
        <text data-detail="context" x="320" y="312" class="t-muted" font-size="9" text-anchor="middle">它自己的一棵 / 树</text>
        </g>

        <g id="node-procB" data-node-id="procB" data-node-label="sidecar 进程" tabindex="0" role="button" aria-label="Focus sidecar 进程, 容器 B 的 1 号进程, 这台机器 › 容器 B" aria-pressed="false" data-node-kind="backend" data-node-sublabel="容器 B 的 1 号进程" data-node-context="这台机器 › 容器 B">
          <title>sidecar 进程 · 容器 B 的 1 号进程 · 这台机器 › 容器 B</title>
          <rect x="690" y="110" width="170" height="56" rx="6" class="c-mask"/>
          <rect x="690" y="110" width="170" height="56" rx="6" class="c-backend" stroke-width="1.5"/>
          <g aria-hidden="true" data-semantic-sigil="backend" class="semantic-sigil s-backend" transform="translate(696 116) scale(0.6875)">
            <path d="M6 3 3 8l3 5M10 3l3 5-3 5"/>
          </g>
          <text data-detail-anchor x="775" y="136" class="t-primary" font-size="11" font-weight="600" text-anchor="middle">sidecar 进程</text>
        <text data-detail="context" x="775" y="152" class="t-muted" font-size="9" text-anchor="middle">容器 B 的 1 号进程</text>
        </g>

        <g id="node-pidB" data-node-id="pidB" data-node-label="PID namespace" tabindex="0" role="button" aria-label="Focus PID namespace, 另一份列表, 这台机器 › 容器 B" aria-pressed="false" data-node-kind="database" data-node-sublabel="另一份列表" data-node-context="这台机器 › 容器 B">
          <title>PID namespace · 另一份列表 · 这台机器 › 容器 B</title>
          <rect x="650" y="270" width="170" height="56" rx="6" class="c-mask"/>
          <rect x="650" y="270" width="170" height="56" rx="6" class="c-database" stroke-width="1.5"/>
          <g aria-hidden="true" data-semantic-sigil="database" class="semantic-sigil s-database" transform="translate(656 276) scale(0.6875)">
            <ellipse cx="8" cy="4" rx="5" ry="2"/>
            <path d="M3 4v8c0 1.1 2.2 2 5 2s5-.9 5-2V4M3 8c0 1.1 2.2 2 5 2s5-.9 5-2"/>
          </g>
          <text data-detail-anchor x="735" y="296" class="t-primary" font-size="11" font-weight="600" text-anchor="middle">PID namespace</text>
        <text data-detail="context" x="735" y="312" class="t-muted" font-size="9" text-anchor="middle">另一份列表</text>
        </g>

        <g id="node-mntB" data-node-id="mntB" data-node-label="MNT namespace" tabindex="0" role="button" aria-label="Focus MNT namespace, 另一棵 / 树, 这台机器 › 容器 B" aria-pressed="false" data-node-kind="database" data-node-sublabel="另一棵 / 树" data-node-context="这台机器 › 容器 B">
          <title>MNT namespace · 另一棵 / 树 · 这台机器 › 容器 B</title>
          <rect x="860" y="270" width="170" height="56" rx="6" class="c-mask"/>
          <rect x="860" y="270" width="170" height="56" rx="6" class="c-database" stroke-width="1.5"/>
          <g aria-hidden="true" data-semantic-sigil="database" class="semantic-sigil s-database" transform="translate(866 276) scale(0.6875)">
            <ellipse cx="8" cy="4" rx="5" ry="2"/>
            <path d="M3 4v8c0 1.1 2.2 2 5 2s5-.9 5-2V4M3 8c0 1.1 2.2 2 5 2s5-.9 5-2"/>
          </g>
          <text data-detail-anchor x="945" y="296" class="t-primary" font-size="11" font-weight="600" text-anchor="middle">MNT namespace</text>
        <text data-detail="context" x="945" y="312" class="t-muted" font-size="9" text-anchor="middle">另一棵 / 树</text>
        </g>

        <g id="node-shared" data-node-id="shared" data-node-label="NET + IPC namespace" tabindex="0" role="button" aria-label="Focus NET + IPC namespace, 两个容器指着同一份, 这台机器" aria-pressed="false" data-node-kind="security" data-node-sublabel="两个容器指着同一份" data-node-context="这台机器">
          <title>NET + IPC namespace · 两个容器指着同一份 · 这台机器</title>
          <rect x="440" y="270" width="125" height="56" rx="6" class="c-mask"/>
          <rect x="440" y="270" width="125" height="56" rx="6" class="c-security" stroke-width="1.5"/>
          <g aria-hidden="true" data-semantic-sigil="security" class="semantic-sigil s-security" transform="translate(446 276) scale(0.6875)">
            <path d="M8 2.2 13 4v3.5c0 3.1-1.8 5.4-5 6.5-3.2-1.1-5-3.4-5-6.5V4Z"/>
            <path d="m5.8 8 1.5 1.5 3-3"/>
          </g>
          <text data-detail-anchor x="502.5" y="296" class="t-primary" font-size="10.2" font-weight="600" text-anchor="middle">NET + IPC namespace</text>
        <text data-detail="context" x="502.5" y="312" class="t-muted" font-size="9" text-anchor="middle">两个容器指着同一份</text>
        </g>

        <!-- Connection labels -->
        <g data-detail="context" data-edge-from="procA" data-edge-to="pidA" data-edge-label="各自一份" data-edge-key="0" data-edge-id="e1">
          <rect x="49.8" y="176" width="48.4" height="14" rx="3" class="c-mask"/>
          <text x="74" y="186" class="t-muted" font-size="8" text-anchor="middle">各自一份</text>
        </g>



        <g data-detail="context" data-edge-from="shared" data-edge-to="procA" data-edge-label="这一份是共用的" data-edge-key="4" data-edge-id="e5">
          <rect x="228.65" y="198" width="77.2" height="14" rx="3" class="c-mask"/>
          <text x="267.25" y="208" class="t-muted" font-size="8" text-anchor="middle">这一份是共用的</text>
        </g>
        <g data-detail="context" data-edge-from="shared" data-edge-to="procB" data-edge-label="同一份" data-edge-key="5" data-edge-id="e6">
          <rect x="655.85" y="198" width="38.8" height="14" rx="3" class="c-mask"/>
          <text x="675.25" y="208" class="t-muted" font-size="8" text-anchor="middle">同一份</text>
        </g>

        <!-- Legend -->
        <g data-legend data-legend-bridge>
          <text x="40" y="524" class="t-primary" font-size="12" font-weight="650">Legend</text>
          <g data-legend-semantic-kind="backend" data-legend-kind="backend" data-legend-label="Backend" data-legend-x="40" data-legend-baseline="544" data-legend-width="78">
            <rect x="40" y="535" width="16" height="10" rx="2.5" class="c-backend" stroke-width="1"/>
            <text x="62" y="544" class="t-muted" font-size="10" font-weight="500">Backend</text>
          </g>
          <g data-legend-semantic-kind="database" data-legend-kind="database" data-legend-label="Database" data-legend-x="140" data-legend-baseline="544" data-legend-width="83">
            <rect x="140" y="535" width="16" height="10" rx="2.5" class="c-database" stroke-width="1"/>
            <text x="162" y="544" class="t-muted" font-size="10" font-weight="500">Database</text>
          </g>
          <g data-legend-semantic-kind="security" data-legend-kind="security" data-legend-label="Security" data-legend-x="245" data-legend-baseline="544" data-legend-width="83">
            <rect x="245" y="535" width="16" height="10" rx="2.5" class="c-security" stroke-width="1"/>
            <text x="267" y="544" class="t-muted" font-size="10" font-weight="500">Security</text>
          </g>
        </g>
      </svg>