<svg viewBox="0 0 836 709" role="img" aria-labelledby="archify-diagram-title archify-diagram-description" data-preset="classic" data-quality-profile="showcase">
        <title id="archify-diagram-title">同一个 fd 表上，挂着两种 socket</title>
        <desc id="archify-diagram-description">监听和连接走的是同一条三层链，只是尽头挂的东西不一样</desc>
        <!-- Definitions -->
        <defs>
          <marker id="arrowhead" markerWidth="10" markerHeight="7" refX="9" refY="3.5" orient="auto">
            <polygon points="0 0, 10 3.5, 0 7" class="m-default" />
          </marker>
          <marker id="arrowhead-emphasis" markerWidth="10" markerHeight="7" refX="9" refY="3.5" orient="auto">
            <polygon points="0 0, 10 3.5, 0 7" class="m-emphasis" />
          </marker>
          <marker id="arrowhead-security" markerWidth="10" markerHeight="7" refX="9" refY="3.5" orient="auto">
            <polygon points="0 0, 10 3.5, 0 7" class="m-security" />
          </marker>
          <marker id="arrowhead-dashed" markerWidth="10" markerHeight="7" refX="9" refY="3.5" orient="auto">
            <polygon points="0 0, 10 3.5, 0 7" class="m-dashed" />
          </marker>
          <pattern id="grid" width="40" height="40" patternUnits="userSpaceOnUse">
            <path d="M 40 0 L 0 0 0 40" class="c-grid" stroke-width="0.5"/>
          </pattern>
        </defs>

        <!-- Background Grid -->
        <rect width="100%" height="100%" fill="url(#grid)" />

        <!-- Boundaries (behind everything) -->
        <rect data-graph-role="structural-frame" data-composition-frame-kind="region" data-composition-frame-id="0" x="64" y="34" width="732" height="212" rx="12" class="c-region" stroke-width="1"/>
        <text x="72" y="52" class="t-cloud" font-size="9" font-weight="600">你的进程（fd 就是这张表的下标）</text>

        <rect data-graph-role="structural-frame" data-composition-frame-kind="region" data-composition-frame-id="1" x="64" y="274" width="732" height="367" rx="12" class="c-region" stroke-width="1"/>
        <text x="72" y="292" class="t-cloud" font-size="9" font-weight="600">内核</text>

        <!-- Connection paths (before components for correct z-order) -->
        <path data-edge-from="fdtable" data-edge-to="lid" data-edge-label="3 号是它" data-edge-key="0" data-edge-id="e1" data-composition-points="330,88;165,88;165,170" d="M 330 88 L 173 88 Q 165 88 165 96 L 165 170" class="a-default" stroke-width="1.5" marker-end="url(#arrowhead)"/>
        <path data-edge-from="fdtable" data-edge-to="cid" data-edge-label="4 号往后都是" data-edge-key="1" data-edge-id="e2" data-composition-points="510,88;675,88;675,170" d="M 510 88 L 667 88 Q 675 88 675 96 L 675 170" class="a-default" stroke-width="1.5" marker-end="url(#arrowhead)"/>
        <path data-edge-from="lid" data-edge-to="chain" data-edge-key="2" data-edge-id="e3" data-composition-points="165,226;165,250;306,250;306,321;330,321" d="M 165 226 L 165 242 Q 165 250 173 250 L 298 250 Q 306 250 306 258 L 306 313 Q 306 321 314 321 L 330 321" class="a-default" stroke-width="1.5" marker-end="url(#arrowhead)"/>
        <path data-edge-from="cid" data-edge-to="chain" data-edge-key="3" data-edge-id="e4" data-composition-points="675,226;675,250;584,250;584,321;560,321" d="M 675 226 L 675 242 Q 675 250 667 250 L 592 250 Q 584 250 584 258 L 584 313 Q 584 321 576 321 L 560 321" class="a-default" stroke-width="1.5" marker-end="url(#arrowhead)"/>
        <path data-edge-from="chain" data-edge-to="lsock" data-edge-label="尽头是没有对端那个" data-edge-key="4" data-edge-id="e5" data-composition-points="330,335;165,335;165,430" d="M 330 335 L 173 335 Q 165 335 165 343 L 165 430" class="a-default" stroke-width="1.5" marker-end="url(#arrowhead)"/>
        <path data-edge-from="chain" data-edge-to="csock" data-edge-label="尽头是有四元组那个" data-edge-key="5" data-edge-id="e6" data-composition-points="560,335;675,335;675,430" d="M 560 335 L 667 335 Q 675 335 675 343 L 675 430" class="a-default" stroke-width="1.5" marker-end="url(#arrowhead)"/>
        <path data-edge-from="lsock" data-edge-to="queues" data-edge-key="6" data-edge-id="e7" data-composition-points="165,486;165,510;191,510;191,541;175,541;175,565" d="M 165 486 L 165 502 Q 165 510 173 510 L 183 510 Q 191 510 191 518 L 191 533 Q 191 541 183 541 L 183 541 Q 175 541 175 549 L 175 565" class="a-default" stroke-width="1.5" marker-end="url(#arrowhead)"/>
        <path data-edge-from="csock" data-edge-to="buf" data-edge-label="所以 N 条连接 = N 份等待" data-edge-key="7" data-edge-id="e8" data-composition-points="675,486;675,565" d="M 675 486 L 675 565" class="a-default" stroke-width="1.5" marker-end="url(#arrowhead)"/>

        <!-- Components -->
        <g id="node-fdtable" data-node-id="fdtable" data-node-label="fd 表" tabindex="0" role="button" aria-label="Focus fd 表, 号码 → 表项的数组, 你的进程（fd 就是这张表的下标）" aria-pressed="false" data-node-kind="database" data-node-sublabel="号码 → 表项的数组" data-node-context="你的进程（fd 就是这张表的下标）">
          <title>fd 表 · 号码 → 表项的数组 · 你的进程（fd 就是这张表的下标）</title>
          <rect x="330" y="60" width="180" height="56" rx="6" class="c-mask"/>
          <rect x="330" y="60" width="180" height="56" rx="6" class="c-database" stroke-width="1.5"/>
          <g aria-hidden="true" data-semantic-sigil="database" class="semantic-sigil s-database" transform="translate(336 66) scale(0.6875)">
            <ellipse cx="8" cy="4" rx="5" ry="2"/>
            <path d="M3 4v8c0 1.1 2.2 2 5 2s5-.9 5-2V4M3 8c0 1.1 2.2 2 5 2s5-.9 5-2"/>
          </g>
          <text data-detail-anchor x="420" y="86" class="t-primary" font-size="11" font-weight="600" text-anchor="middle">fd 表</text>
        <text data-detail="context" x="420" y="102" class="t-muted" font-size="9" text-anchor="middle">号码 → 表项的数组</text>
        </g>

        <g id="node-lid" data-node-id="lid" data-node-label="listen_fd" tabindex="0" role="button" aria-label="Focus listen_fd, 一个，一直守着 80, 你的进程（fd 就是这张表的下标）" aria-pressed="false" data-node-kind="backend" data-node-sublabel="一个，一直守着 80" data-node-context="你的进程（fd 就是这张表的下标）">
          <title>listen_fd · 一个，一直守着 80 · 你的进程（fd 就是这张表的下标）</title>
          <rect x="90" y="170" width="150" height="56" rx="6" class="c-mask"/>
          <rect x="90" y="170" width="150" height="56" rx="6" class="c-backend" stroke-width="1.5"/>
          <g aria-hidden="true" data-semantic-sigil="backend" class="semantic-sigil s-backend" transform="translate(96 176) scale(0.6875)">
            <path d="M6 3 3 8l3 5M10 3l3 5-3 5"/>
          </g>
          <text data-detail-anchor x="165" y="196" class="t-primary" font-size="11" font-weight="600" text-anchor="middle">listen_fd</text>
        <text data-detail="context" x="165" y="212" class="t-muted" font-size="9" text-anchor="middle">一个，一直守着 80</text>
        </g>

        <g id="node-cid" data-node-id="cid" data-node-label="conn_fd" tabindex="0" role="button" aria-label="Focus conn_fd, 每来一个客户端多一个, 你的进程（fd 就是这张表的下标）" aria-pressed="false" data-node-kind="backend" data-node-sublabel="每来一个客户端多一个" data-node-context="你的进程（fd 就是这张表的下标）">
          <title>conn_fd · 每来一个客户端多一个 · 你的进程（fd 就是这张表的下标）</title>
          <rect x="580" y="170" width="190" height="56" rx="6" class="c-mask"/>
          <rect x="580" y="170" width="190" height="56" rx="6" class="c-backend" stroke-width="1.5"/>
          <g aria-hidden="true" data-semantic-sigil="backend" class="semantic-sigil s-backend" transform="translate(586 176) scale(0.6875)">
            <path d="M6 3 3 8l3 5M10 3l3 5-3 5"/>
          </g>
          <text data-detail-anchor x="675" y="196" class="t-primary" font-size="11" font-weight="600" text-anchor="middle">conn_fd</text>
        <text data-detail="context" x="675" y="212" class="t-muted" font-size="9" text-anchor="middle">每来一个客户端多一个</text>
        </g>

        <g id="node-chain" data-node-id="chain" data-node-label="struct file → socket → sock" tabindex="0" role="button" aria-label="Focus struct file → socket → sock, 每个 fd 都走这条三层链, 内核" aria-pressed="false" data-node-kind="cloud" data-node-sublabel="每个 fd 都走这条三层链" data-node-context="内核">
          <title>struct file → socket → sock · 每个 fd 都走这条三层链 · 内核</title>
          <rect x="330" y="300" width="230" height="56" rx="6" class="c-mask"/>
          <rect x="330" y="300" width="230" height="56" rx="6" class="c-cloud" stroke-width="1.5"/>
          <g aria-hidden="true" data-semantic-sigil="cloud" class="semantic-sigil s-cloud" transform="translate(336 306) scale(0.6875)">
            <path d="M4.3 12.5h7.3a2.4 2.4 0 0 0 .2-4.8 4 4 0 0 0-7.5-1.3A3.1 3.1 0 0 0 4.3 12.5Z"/>
          </g>
          <text data-detail-anchor x="445" y="326" class="t-primary" font-size="11" font-weight="600" text-anchor="middle">struct file → socket → sock</text>
        <text data-detail="context" x="445" y="342" class="t-muted" font-size="9" text-anchor="middle">每个 fd 都走这条三层链</text>
        </g>

        <g id="node-lsock" data-node-id="lsock" data-node-label="监听 sock" tabindex="0" role="button" aria-label="Focus 监听 sock, LISTEN · 没有对端, 内核" aria-pressed="false" data-node-kind="security" data-node-sublabel="LISTEN · 没有对端" data-node-context="内核">
          <title>监听 sock · LISTEN · 没有对端 · 内核</title>
          <rect x="90" y="430" width="150" height="56" rx="6" class="c-mask"/>
          <rect x="90" y="430" width="150" height="56" rx="6" class="c-security" stroke-width="1.5"/>
          <g aria-hidden="true" data-semantic-sigil="security" class="semantic-sigil s-security" transform="translate(96 436) scale(0.6875)">
            <path d="M8 2.2 13 4v3.5c0 3.1-1.8 5.4-5 6.5-3.2-1.1-5-3.4-5-6.5V4Z"/>
            <path d="m5.8 8 1.5 1.5 3-3"/>
          </g>
          <text data-detail-anchor x="165" y="456" class="t-primary" font-size="11" font-weight="600" text-anchor="middle">监听 sock</text>
        <text data-detail="context" x="165" y="472" class="t-muted" font-size="9" text-anchor="middle">LISTEN · 没有对端</text>
        </g>

        <g id="node-csock" data-node-id="csock" data-node-label="连接 sock" tabindex="0" role="button" aria-label="Focus 连接 sock, ESTABLISHED · 完整四元组, 内核" aria-pressed="false" data-node-kind="database" data-node-sublabel="ESTABLISHED · 完整四元组" data-node-context="内核">
          <title>连接 sock · ESTABLISHED · 完整四元组 · 内核</title>
          <rect x="580" y="430" width="190" height="56" rx="6" class="c-mask"/>
          <rect x="580" y="430" width="190" height="56" rx="6" class="c-database" stroke-width="1.5"/>
          <g aria-hidden="true" data-semantic-sigil="database" class="semantic-sigil s-database" transform="translate(586 436) scale(0.6875)">
            <ellipse cx="8" cy="4" rx="5" ry="2"/>
            <path d="M3 4v8c0 1.1 2.2 2 5 2s5-.9 5-2V4M3 8c0 1.1 2.2 2 5 2s5-.9 5-2"/>
          </g>
          <text data-detail-anchor x="675" y="456" class="t-primary" font-size="11" font-weight="600" text-anchor="middle">连接 sock</text>
        <text data-detail="context" x="675" y="472" class="t-muted" font-size="9" text-anchor="middle">ESTABLISHED · 完整四元组</text>
        </g>

        <g id="node-queues" data-node-id="queues" data-node-label="半连接队列 / 全连接队列" tabindex="0" role="button" aria-label="Focus 半连接队列 / 全连接队列, 等你去 accept, 内核" aria-pressed="false" data-node-kind="external" data-node-sublabel="等你去 accept" data-node-context="内核">
          <title>半连接队列 / 全连接队列 · 等你去 accept · 内核</title>
          <rect x="90" y="565" width="170" height="56" rx="6" class="c-mask"/>
          <rect x="90" y="565" width="170" height="56" rx="6" class="c-external" stroke-width="1.5"/>
          <g aria-hidden="true" data-semantic-sigil="external" class="semantic-sigil s-external" transform="translate(96 571) scale(0.6875)">
            <rect x="2.5" y="5" width="8.5" height="8" rx="1.5"/>
            <path d="M8 2.5h5.5V8M13.5 2.5 7.5 8.5"/>
          </g>
          <text data-detail-anchor x="175" y="591" class="t-primary" font-size="11" font-weight="600" text-anchor="middle">半连接队列 / 全连接队列</text>
        <text data-detail="context" x="175" y="607" class="t-muted" font-size="9" text-anchor="middle">等你去 accept</text>
        </g>

        <g id="node-buf" data-node-id="buf" data-node-label="接收缓冲 + 发送缓冲" tabindex="0" role="button" aria-label="Focus 接收缓冲 + 发送缓冲, 每条连接各一份, 内核" aria-pressed="false" data-node-kind="external" data-node-sublabel="每条连接各一份" data-node-context="内核">
          <title>接收缓冲 + 发送缓冲 · 每条连接各一份 · 内核</title>
          <rect x="580" y="565" width="190" height="56" rx="6" class="c-mask"/>
          <rect x="580" y="565" width="190" height="56" rx="6" class="c-external" stroke-width="1.5"/>
          <g aria-hidden="true" data-semantic-sigil="external" class="semantic-sigil s-external" transform="translate(586 571) scale(0.6875)">
            <rect x="2.5" y="5" width="8.5" height="8" rx="1.5"/>
            <path d="M8 2.5h5.5V8M13.5 2.5 7.5 8.5"/>
          </g>
          <text data-detail-anchor x="675" y="591" class="t-primary" font-size="11" font-weight="600" text-anchor="middle">接收缓冲 + 发送缓冲</text>
        <text data-detail="context" x="675" y="607" class="t-muted" font-size="9" text-anchor="middle">每条连接各一份</text>
        </g>

        <!-- Connection labels -->
        <g data-detail="context" data-edge-from="fdtable" data-edge-to="lid" data-edge-label="3 号是它" data-edge-key="0" data-edge-id="e1">
          <rect x="140.8" y="109" width="48.4" height="14" rx="3" class="c-mask"/>
          <text x="165" y="119" class="t-muted" font-size="8" text-anchor="middle">3 号是它</text>
        </g>
        <g data-detail="context" data-edge-from="fdtable" data-edge-to="cid" data-edge-label="4 号往后都是" data-edge-key="1" data-edge-id="e2">
          <rect x="641.2" y="109" width="67.6" height="14" rx="3" class="c-mask"/>
          <text x="675" y="119" class="t-muted" font-size="8" text-anchor="middle">4 号往后都是</text>
        </g>


        <g data-detail="context" data-edge-from="chain" data-edge-to="lsock" data-edge-label="尽头是没有对端那个" data-edge-key="4" data-edge-id="e5">
          <rect x="116.80000000000001" y="362.5" width="96.39999999999999" height="14" rx="3" class="c-mask"/>
          <text x="165" y="372.5" class="t-muted" font-size="8" text-anchor="middle">尽头是没有对端那个</text>
        </g>
        <g data-detail="context" data-edge-from="chain" data-edge-to="csock" data-edge-label="尽头是有四元组那个" data-edge-key="5" data-edge-id="e6">
          <rect x="626.8" y="362.5" width="96.39999999999999" height="14" rx="3" class="c-mask"/>
          <text x="675" y="372.5" class="t-muted" font-size="8" text-anchor="middle">尽头是有四元组那个</text>
        </g>

        <g data-detail="context" data-edge-from="csock" data-edge-to="buf" data-edge-label="所以 N 条连接 = N 份等待" data-edge-key="7" data-edge-id="e8">
          <rect x="612.4" y="492" width="125.19999999999999" height="14" rx="3" class="c-mask"/>
          <text x="675" y="502" class="t-muted" font-size="8" text-anchor="middle">所以 N 条连接 = N 份等待</text>
        </g>

        <!-- Legend -->
        <g data-legend data-legend-bridge>
          <text x="40" y="673" class="t-primary" font-size="12" font-weight="650">Legend</text>
          <g data-legend-semantic-kind="backend" data-legend-kind="backend" data-legend-label="Backend" data-legend-x="40" data-legend-baseline="693" data-legend-width="78">
            <rect x="40" y="684" width="16" height="10" rx="2.5" class="c-backend" stroke-width="1"/>
            <text x="62" y="693" class="t-muted" font-size="10" font-weight="500">Backend</text>
          </g>
          <g data-legend-semantic-kind="database" data-legend-kind="database" data-legend-label="Database" data-legend-x="140" data-legend-baseline="693" data-legend-width="83">
            <rect x="140" y="684" width="16" height="10" rx="2.5" class="c-database" stroke-width="1"/>
            <text x="162" y="693" class="t-muted" font-size="10" font-weight="500">Database</text>
          </g>
          <g data-legend-semantic-kind="cloud" data-legend-kind="cloud" data-legend-label="Cloud" data-legend-x="245" data-legend-baseline="693" data-legend-width="68">
            <rect x="245" y="684" width="16" height="10" rx="2.5" class="c-cloud" stroke-width="1"/>
            <text x="267" y="693" class="t-muted" font-size="10" font-weight="500">Cloud</text>
          </g>
          <g data-legend-semantic-kind="security" data-legend-kind="security" data-legend-label="Security" data-legend-x="335" data-legend-baseline="693" data-legend-width="83">
            <rect x="335" y="684" width="16" height="10" rx="2.5" class="c-security" stroke-width="1"/>
            <text x="357" y="693" class="t-muted" font-size="10" font-weight="500">Security</text>
          </g>
          <g data-legend-semantic-kind="external" data-legend-kind="external" data-legend-label="External" data-legend-x="440" data-legend-baseline="693" data-legend-width="83">
            <rect x="440" y="684" width="16" height="10" rx="2.5" class="c-external" stroke-width="1"/>
            <text x="462" y="693" class="t-muted" font-size="10" font-weight="500">External</text>
          </g>
        </g>
      </svg>